<svg xmlns="http://www.w3.org/2000/svg" xmlns:xlink="http://www.w3.org/1999/xlink" width="500" zoomAndPan="magnify" viewBox="0 0 375 374.999991" height="500" preserveAspectRatio="xMidYMid meet" version="1.0"><defs><clipPath id="5ba73e9e0a"><path d="M 6.738281 27 L 329 27 L 329 338 L 6.738281 338 Z M 6.738281 27 " clip-rule="nonzero"/></clipPath><clipPath id="cf7e381f47"><path d="M 211 301 L 368.238281 301 L 368.238281 356 L 211 356 Z M 211 301 " clip-rule="nonzero"/></clipPath></defs><g clip-path="url(#5ba73e9e0a)"><path fill="#000000" d="M 193.511719 325.113281 L 58.25 325.113281 L 58.25 204.632812 L 157.363281 204.632812 C 160.691406 204.632812 163.386719 201.9375 163.386719 198.605469 L 163.386719 156.4375 C 163.386719 153.109375 160.691406 150.414062 157.363281 150.414062 L 58.25 150.414062 L 58.25 121.980469 L 316.722656 121.980469 L 316.722656 282.945312 C 316.722656 286.273438 319.417969 288.96875 322.75 288.96875 C 326.078125 288.96875 328.773438 286.273438 328.773438 282.945312 L 328.773438 116.035156 C 328.824219 115.960938 328.773438 54.550781 328.792969 54.464844 C 328.792969 51.136719 326.097656 48.4375 322.765625 48.4375 L 290.589844 48.4375 C 281.835938 20.019531 240.894531 20.03125 232.152344 48.4375 L 216.800781 48.4375 C 208.039062 20.019531 167.109375 20.03125 158.363281 48.4375 L 143.003906 48.4375 C 134.253906 20.019531 93.3125 20.03125 84.566406 48.4375 L 52.207031 48.4375 C 48.875 48.4375 46.183594 51.136719 46.183594 54.464844 C 46.171875 76.488281 46.199219 128.972656 46.199219 150.414062 L 12.761719 150.414062 C 9.429688 150.414062 6.738281 153.109375 6.738281 156.4375 L 6.738281 198.605469 C 6.738281 201.9375 9.429688 204.632812 12.761719 204.632812 L 46.199219 204.632812 L 46.199219 331.136719 C 46.199219 334.46875 48.894531 337.164062 52.222656 337.164062 L 193.511719 337.164062 C 201.347656 337.132812 201.429688 325.148438 193.511719 325.113281 Z M 261.371094 38.96875 C 268.230469 38.96875 274.304688 42.757812 277.519531 48.4375 L 245.21875 48.4375 C 248.4375 42.757812 254.507812 38.96875 261.371094 38.96875 Z M 187.582031 38.96875 C 194.4375 38.96875 200.511719 42.757812 203.730469 48.4375 L 171.429688 48.4375 C 174.648438 42.757812 180.71875 38.96875 187.582031 38.96875 Z M 113.785156 38.96875 C 120.648438 38.96875 126.71875 42.757812 129.9375 48.4375 L 97.636719 48.4375 C 100.851562 42.757812 106.921875 38.96875 113.785156 38.96875 Z M 58.230469 60.488281 L 83.464844 60.488281 C 84.976562 75.972656 97.917969 88.15625 113.785156 88.15625 C 117.117188 88.15625 119.8125 85.457031 119.8125 82.128906 C 119.8125 78.804688 117.117188 76.105469 113.785156 76.105469 C 104.558594 76.105469 96.941406 69.320312 95.515625 60.488281 L 157.253906 60.488281 C 158.765625 75.972656 171.703125 88.15625 187.582031 88.15625 C 190.910156 88.15625 193.605469 85.457031 193.605469 82.128906 C 193.605469 78.804688 190.910156 76.105469 187.582031 76.105469 C 178.347656 76.105469 170.730469 69.320312 169.304688 60.488281 L 231.046875 60.488281 C 232.558594 75.972656 245.5 88.15625 261.371094 88.15625 C 264.699219 88.15625 267.394531 85.457031 267.394531 82.128906 C 267.394531 78.804688 264.699219 76.105469 261.371094 76.105469 C 252.140625 76.105469 244.523438 69.320312 243.097656 60.488281 L 316.742188 60.488281 L 316.742188 109.921875 L 58.230469 109.921875 Z M 66.988281 162.460938 L 103.136719 162.460938 L 103.136719 192.582031 L 66.988281 192.582031 Z M 151.335938 192.582031 L 115.1875 192.582031 L 115.1875 162.460938 L 151.335938 162.460938 Z M 18.785156 162.460938 L 54.9375 162.460938 L 54.9375 192.582031 L 18.785156 192.582031 Z M 18.785156 162.460938 " fill-opacity="1" fill-rule="nonzero"/></g><path fill="#000000" d="M 97.113281 222.703125 C 93.78125 222.703125 91.085938 225.398438 91.085938 228.726562 L 91.085938 270.898438 C 91.085938 274.226562 93.78125 276.921875 97.113281 276.921875 L 241.710938 276.921875 C 245.042969 276.921875 247.738281 274.226562 247.738281 270.898438 L 247.738281 228.726562 C 247.738281 225.398438 245.042969 222.703125 241.710938 222.703125 Z M 187.488281 234.75 L 187.488281 264.871094 L 151.335938 264.871094 L 151.335938 234.75 Z M 103.136719 234.75 L 139.285156 234.75 L 139.285156 264.871094 L 103.136719 264.871094 Z M 235.6875 264.871094 L 199.535156 264.871094 L 199.535156 234.75 L 235.6875 234.75 Z M 235.6875 264.871094 " fill-opacity="1" fill-rule="nonzero"/><g clip-path="url(#cf7e381f47)"><path fill="#000000" d="M 362.210938 301.015625 L 217.613281 301.015625 C 214.28125 301.015625 211.585938 303.710938 211.585938 307.042969 L 211.585938 349.210938 C 211.585938 352.539062 214.28125 355.234375 217.613281 355.234375 L 362.210938 355.234375 C 365.542969 355.234375 368.238281 352.539062 368.238281 349.210938 L 368.238281 307.042969 C 368.238281 303.710938 365.542969 301.015625 362.210938 301.015625 Z M 307.988281 313.066406 L 307.988281 343.1875 L 271.835938 343.1875 L 271.835938 313.066406 Z M 223.636719 313.066406 L 259.785156 313.066406 L 259.785156 343.1875 L 223.636719 343.1875 Z M 356.1875 343.1875 L 320.035156 343.1875 L 320.035156 313.066406 L 356.1875 313.066406 Z M 356.1875 343.1875 " fill-opacity="1" fill-rule="nonzero"/></g><path fill="#000000" d="M 270.070312 146.15625 C 267.71875 143.800781 263.90625 143.800781 261.550781 146.15625 L 229.660156 178.039062 L 215.847656 164.226562 C 210.265625 158.683594 201.773438 167.148438 207.328125 172.746094 C 207.328125 172.746094 225.402344 190.816406 225.402344 190.816406 C 227.753906 193.171875 231.566406 193.171875 233.921875 190.816406 L 270.070312 154.671875 C 272.425781 152.320312 272.425781 148.507812 270.070312 146.15625 Z M 270.070312 146.15625 " fill-opacity="1" fill-rule="nonzero"/></svg>