<svg xmlns="http://www.w3.org/2000/svg" xmlns:xlink="http://www.w3.org/1999/xlink" width="500" zoomAndPan="magnify" viewBox="0 0 375 374.999991" height="500" preserveAspectRatio="xMidYMid meet" version="1.0"><defs><clipPath id="e7d2125486"><path d="M 12.804688 12.804688 L 359.304688 12.804688 L 359.304688 359.304688 L 12.804688 359.304688 Z M 12.804688 12.804688 " clip-rule="nonzero"/></clipPath><clipPath id="32b901e98e"><path d="M 322.179688 12.804688 L 49.929688 12.804688 C 48.714844 12.808594 47.503906 12.871094 46.292969 12.992188 C 45.085938 13.117188 43.886719 13.296875 42.695312 13.535156 C 41.503906 13.777344 40.328125 14.074219 39.164062 14.429688 C 38.003906 14.785156 36.863281 15.195312 35.742188 15.660156 C 34.617188 16.128906 33.523438 16.648438 32.453125 17.222656 C 31.378906 17.796875 30.339844 18.421875 29.332031 19.097656 C 28.320312 19.773438 27.347656 20.496094 26.40625 21.265625 C 25.46875 22.039062 24.570312 22.851562 23.710938 23.710938 C 22.851562 24.570312 22.039062 25.46875 21.265625 26.40625 C 20.496094 27.347656 19.773438 28.320312 19.097656 29.332031 C 18.421875 30.339844 17.796875 31.378906 17.222656 32.453125 C 16.648438 33.523438 16.128906 34.617188 15.660156 35.742188 C 15.195312 36.863281 14.785156 38.003906 14.429688 39.164062 C 14.074219 40.328125 13.777344 41.503906 13.535156 42.695312 C 13.296875 43.886719 13.117188 45.085938 12.992188 46.292969 C 12.871094 47.503906 12.808594 48.714844 12.804688 49.929688 L 12.804688 322.179688 C 12.808594 323.394531 12.871094 324.605469 12.992188 325.816406 C 13.117188 327.023438 13.296875 328.222656 13.535156 329.414062 C 13.777344 330.605469 14.074219 331.78125 14.429688 332.945312 C 14.785156 334.105469 15.195312 335.25 15.660156 336.371094 C 16.128906 337.492188 16.648438 338.589844 17.222656 339.660156 C 17.796875 340.730469 18.421875 341.769531 19.097656 342.78125 C 19.773438 343.789062 20.496094 344.761719 21.265625 345.703125 C 22.039062 346.640625 22.851562 347.539062 23.710938 348.398438 C 24.570312 349.257812 25.46875 350.074219 26.40625 350.84375 C 27.347656 351.617188 28.320312 352.339844 29.332031 353.015625 C 30.339844 353.691406 31.378906 354.316406 32.453125 354.890625 C 33.523438 355.460938 34.617188 355.984375 35.742188 356.449219 C 36.863281 356.917969 38.003906 357.328125 39.164062 357.683594 C 40.328125 358.035156 41.503906 358.332031 42.695312 358.574219 C 43.886719 358.8125 45.085938 358.992188 46.292969 359.117188 C 47.503906 359.238281 48.714844 359.300781 49.929688 359.304688 L 322.179688 359.304688 C 323.394531 359.300781 324.605469 359.238281 325.816406 359.117188 C 327.023438 358.996094 328.222656 358.8125 329.414062 358.574219 C 330.605469 358.332031 331.78125 358.035156 332.945312 357.683594 C 334.105469 357.328125 335.25 356.917969 336.371094 356.449219 C 337.492188 355.984375 338.589844 355.460938 339.660156 354.890625 C 340.730469 354.316406 341.769531 353.691406 342.78125 353.015625 C 343.789062 352.339844 344.761719 351.617188 345.703125 350.84375 C 346.640625 350.074219 347.539062 349.257812 348.398438 348.398438 C 349.257812 347.539062 350.074219 346.640625 350.84375 345.703125 C 351.617188 344.761719 352.339844 343.789062 353.015625 342.78125 C 353.691406 341.769531 354.316406 340.730469 354.890625 339.660156 C 355.460938 338.589844 355.984375 337.492188 356.449219 336.371094 C 356.917969 335.25 357.328125 334.105469 357.683594 332.945312 C 358.035156 331.78125 358.332031 330.605469 358.574219 329.414062 C 358.8125 328.222656 358.996094 327.023438 359.117188 325.816406 C 359.238281 324.605469 359.300781 323.394531 359.304688 322.179688 L 359.304688 49.929688 C 359.300781 48.714844 359.238281 47.503906 359.117188 46.292969 C 358.992188 45.085938 358.8125 43.886719 358.574219 42.695312 C 358.332031 41.503906 358.035156 40.328125 357.683594 39.164062 C 357.328125 38.003906 356.917969 36.863281 356.449219 35.742188 C 355.984375 34.617188 355.460938 33.523438 354.890625 32.453125 C 354.316406 31.378906 353.691406 30.339844 353.015625 29.332031 C 352.339844 28.320312 351.617188 27.347656 350.84375 26.40625 C 350.074219 25.46875 349.257812 24.570312 348.398438 23.710938 C 347.539062 22.851562 346.640625 22.039062 345.703125 21.265625 C 344.761719 20.496094 343.789062 19.773438 342.78125 19.097656 C 341.769531 18.421875 340.730469 17.796875 339.660156 17.222656 C 338.589844 16.648438 337.492188 16.128906 336.371094 15.660156 C 335.25 15.195312 334.105469 14.785156 332.945312 14.429688 C 331.78125 14.074219 330.605469 13.777344 329.414062 13.535156 C 328.222656 13.296875 327.023438 13.117188 325.816406 12.992188 C 324.605469 12.871094 323.394531 12.808594 322.179688 12.804688 Z M 65.894531 98.441406 C 66.472656 97.867188 67.101562 97.355469 67.78125 96.902344 C 68.460938 96.453125 69.175781 96.070312 69.929688 95.761719 C 70.683594 95.449219 71.460938 95.214844 72.257812 95.058594 C 73.058594 94.898438 73.863281 94.820312 74.679688 94.820312 C 75.496094 94.820312 76.300781 94.898438 77.101562 95.058594 C 77.902344 95.214844 78.679688 95.449219 79.429688 95.761719 C 80.183594 96.070312 80.902344 96.453125 81.582031 96.902344 C 82.257812 97.355469 82.886719 97.867188 83.464844 98.441406 L 102.027344 117.003906 L 148.929688 64.160156 C 149.472656 63.550781 150.066406 63.003906 150.714844 62.511719 C 151.363281 62.019531 152.054688 61.59375 152.785156 61.238281 C 153.519531 60.882812 154.277344 60.601562 155.066406 60.398438 C 155.851562 60.191406 156.652344 60.0625 157.464844 60.015625 C 158.277344 59.964844 159.089844 59.996094 159.894531 60.109375 C 160.703125 60.21875 161.488281 60.40625 162.257812 60.675781 C 163.027344 60.941406 163.765625 61.277344 164.46875 61.6875 C 165.171875 62.101562 165.824219 62.574219 166.433594 63.117188 C 167.042969 63.65625 167.59375 64.25 168.085938 64.898438 C 168.578125 65.546875 169.003906 66.238281 169.359375 66.96875 C 169.714844 67.703125 169.996094 68.460938 170.203125 69.25 C 170.410156 70.035156 170.539062 70.835938 170.585938 71.648438 C 170.636719 72.460938 170.605469 73.269531 170.496094 74.078125 C 170.386719 74.882812 170.199219 75.671875 169.933594 76.441406 C 169.667969 77.210938 169.328125 77.949219 168.917969 78.652344 C 168.507812 79.355469 168.03125 80.011719 167.492188 80.621094 L 111.804688 143.238281 C 110.664062 144.511719 109.324219 145.515625 107.777344 146.242188 C 106.230469 146.972656 104.601562 147.375 102.894531 147.445312 L 102.523438 147.445312 C 100.871094 147.425781 99.285156 147.097656 97.765625 146.453125 C 96.246094 145.8125 94.902344 144.902344 93.738281 143.734375 L 65.894531 115.890625 C 65.324219 115.316406 64.8125 114.691406 64.367188 114.015625 C 63.917969 113.34375 63.539062 112.632812 63.230469 111.882812 C 62.921875 111.136719 62.6875 110.363281 62.53125 109.570312 C 62.375 108.777344 62.296875 107.972656 62.296875 107.164062 C 62.296875 106.355469 62.375 105.554688 62.53125 104.757812 C 62.6875 103.964844 62.921875 103.195312 63.230469 102.445312 C 63.539062 101.699219 63.917969 100.988281 64.367188 100.3125 C 64.8125 99.636719 65.324219 99.015625 65.894531 98.441406 Z M 297.429688 309.804688 L 74.679688 309.804688 C 73.867188 309.804688 73.0625 309.726562 72.265625 309.566406 C 71.46875 309.410156 70.695312 309.175781 69.945312 308.863281 C 69.195312 308.550781 68.480469 308.171875 67.804688 307.71875 C 67.128906 307.269531 66.503906 306.753906 65.929688 306.179688 C 65.355469 305.605469 64.84375 304.980469 64.390625 304.304688 C 63.9375 303.628906 63.558594 302.917969 63.246094 302.164062 C 62.9375 301.414062 62.703125 300.640625 62.542969 299.84375 C 62.382812 299.046875 62.304688 298.242188 62.304688 297.429688 C 62.304688 296.617188 62.382812 295.8125 62.542969 295.015625 C 62.703125 294.21875 62.9375 293.445312 63.246094 292.695312 C 63.558594 291.945312 63.9375 291.230469 64.390625 290.554688 C 64.84375 289.878906 65.355469 289.253906 65.929688 288.679688 C 66.503906 288.105469 67.128906 287.59375 67.804688 287.140625 C 68.480469 286.6875 69.195312 286.308594 69.945312 285.996094 C 70.695312 285.6875 71.46875 285.453125 72.265625 285.292969 C 73.0625 285.132812 73.867188 285.054688 74.679688 285.054688 L 297.429688 285.054688 C 298.242188 285.054688 299.046875 285.132812 299.84375 285.292969 C 300.640625 285.453125 301.414062 285.6875 302.164062 285.996094 C 302.917969 286.308594 303.628906 286.6875 304.304688 287.140625 C 304.980469 287.59375 305.605469 288.105469 306.179688 288.679688 C 306.753906 289.253906 307.269531 289.878906 307.71875 290.554688 C 308.171875 291.230469 308.550781 291.945312 308.863281 292.695312 C 309.175781 293.445312 309.410156 294.21875 309.566406 295.015625 C 309.726562 295.8125 309.804688 296.617188 309.804688 297.429688 C 309.804688 298.242188 309.726562 299.046875 309.566406 299.84375 C 309.410156 300.640625 309.175781 301.414062 308.863281 302.164062 C 308.550781 302.917969 308.171875 303.628906 307.71875 304.304688 C 307.269531 304.980469 306.753906 305.605469 306.179688 306.179688 C 305.605469 306.753906 304.980469 307.269531 304.304688 307.71875 C 303.628906 308.171875 302.917969 308.550781 302.164062 308.863281 C 301.414062 309.175781 300.640625 309.410156 299.84375 309.566406 C 299.046875 309.726562 298.242188 309.804688 297.429688 309.804688 Z M 297.429688 254.117188 L 74.679688 254.117188 C 73.867188 254.117188 73.0625 254.039062 72.265625 253.878906 C 71.46875 253.722656 70.695312 253.488281 69.945312 253.175781 C 69.195312 252.863281 68.480469 252.484375 67.804688 252.03125 C 67.128906 251.582031 66.503906 251.066406 65.929688 250.492188 C 65.355469 249.917969 64.84375 249.292969 64.390625 248.617188 C 63.9375 247.941406 63.558594 247.230469 63.246094 246.476562 C 62.9375 245.726562 62.703125 244.953125 62.542969 244.15625 C 62.382812 243.359375 62.304688 242.554688 62.304688 241.742188 C 62.304688 240.929688 62.382812 240.125 62.542969 239.328125 C 62.703125 238.53125 62.9375 237.757812 63.246094 237.007812 C 63.558594 236.257812 63.9375 235.542969 64.390625 234.867188 C 64.84375 234.191406 65.355469 233.566406 65.929688 232.992188 C 66.503906 232.417969 67.128906 231.90625 67.804688 231.453125 C 68.480469 231 69.195312 230.621094 69.945312 230.308594 C 70.695312 230 71.46875 229.765625 72.265625 229.605469 C 73.0625 229.445312 73.867188 229.367188 74.679688 229.367188 L 297.429688 229.367188 C 298.242188 229.367188 299.046875 229.445312 299.84375 229.605469 C 300.640625 229.765625 301.414062 230 302.164062 230.308594 C 302.917969 230.621094 303.628906 231 304.304688 231.453125 C 304.980469 231.90625 305.605469 232.417969 306.179688 232.992188 C 306.753906 233.566406 307.269531 234.191406 307.71875 234.867188 C 308.171875 235.542969 308.550781 236.257812 308.863281 237.007812 C 309.175781 237.757812 309.410156 238.53125 309.566406 239.328125 C 309.726562 240.125 309.804688 240.929688 309.804688 241.742188 C 309.804688 242.554688 309.726562 243.359375 309.566406 244.15625 C 309.410156 244.953125 309.175781 245.726562 308.863281 246.476562 C 308.550781 247.230469 308.171875 247.941406 307.71875 248.617188 C 307.269531 249.292969 306.753906 249.917969 306.179688 250.492188 C 305.605469 251.066406 304.980469 251.582031 304.304688 252.03125 C 303.628906 252.484375 302.917969 252.863281 302.164062 253.175781 C 301.414062 253.488281 300.640625 253.722656 299.84375 253.878906 C 299.046875 254.039062 298.242188 254.117188 297.429688 254.117188 Z M 297.429688 198.429688 L 74.679688 198.429688 C 73.867188 198.429688 73.0625 198.351562 72.265625 198.191406 C 71.46875 198.035156 70.695312 197.800781 69.945312 197.488281 C 69.195312 197.175781 68.480469 196.796875 67.804688 196.34375 C 67.128906 195.894531 66.503906 195.378906 65.929688 194.804688 C 65.355469 194.230469 64.84375 193.605469 64.390625 192.929688 C 63.9375 192.253906 63.558594 191.542969 63.246094 190.789062 C 62.9375 190.039062 62.703125 189.265625 62.542969 188.46875 C 62.382812 187.671875 62.304688 186.867188 62.304688 186.054688 C 62.304688 185.242188 62.382812 184.4375 62.542969 183.640625 C 62.703125 182.84375 62.9375 182.070312 63.246094 181.320312 C 63.558594 180.570312 63.9375 179.855469 64.390625 179.179688 C 64.84375 178.503906 65.355469 177.878906 65.929688 177.304688 C 66.503906 176.730469 67.128906 176.21875 67.804688 175.765625 C 68.480469 175.3125 69.195312 174.933594 69.945312 174.621094 C 70.695312 174.3125 71.46875 174.078125 72.265625 173.917969 C 73.0625 173.757812 73.867188 173.679688 74.679688 173.679688 L 297.429688 173.679688 C 298.242188 173.679688 299.046875 173.757812 299.84375 173.917969 C 300.640625 174.078125 301.414062 174.3125 302.164062 174.621094 C 302.917969 174.933594 303.628906 175.3125 304.304688 175.765625 C 304.980469 176.21875 305.605469 176.730469 306.179688 177.304688 C 306.753906 177.878906 307.269531 178.503906 307.71875 179.179688 C 308.171875 179.855469 308.550781 180.570312 308.863281 181.320312 C 309.175781 182.070312 309.410156 182.84375 309.566406 183.640625 C 309.726562 184.4375 309.804688 185.242188 309.804688 186.054688 C 309.804688 186.867188 309.726562 187.671875 309.566406 188.46875 C 309.410156 189.265625 309.175781 190.039062 308.863281 190.789062 C 308.550781 191.542969 308.171875 192.253906 307.71875 192.929688 C 307.269531 193.605469 306.753906 194.230469 306.179688 194.804688 C 305.605469 195.378906 304.980469 195.894531 304.304688 196.34375 C 303.628906 196.796875 302.917969 197.175781 302.164062 197.488281 C 301.414062 197.800781 300.640625 198.035156 299.84375 198.191406 C 299.046875 198.351562 298.242188 198.429688 297.429688 198.429688 Z M 297.429688 131.109375 L 186.054688 131.109375 C 185.242188 131.109375 184.4375 131.03125 183.640625 130.871094 C 182.84375 130.714844 182.070312 130.480469 181.320312 130.167969 C 180.570312 129.855469 179.855469 129.476562 179.179688 129.023438 C 178.503906 128.574219 177.878906 128.058594 177.304688 127.484375 C 176.730469 126.910156 176.21875 126.285156 175.765625 125.609375 C 175.3125 124.933594 174.933594 124.222656 174.621094 123.472656 C 174.3125 122.71875 174.078125 121.945312 173.917969 121.148438 C 173.757812 120.351562 173.679688 119.546875 173.679688 118.734375 C 173.679688 117.921875 173.757812 117.117188 173.917969 116.320312 C 174.078125 115.523438 174.3125 114.75 174.621094 114 C 174.933594 113.25 175.3125 112.535156 175.765625 111.859375 C 176.21875 111.183594 176.730469 110.558594 177.304688 109.984375 C 177.878906 109.410156 178.503906 108.898438 179.179688 108.445312 C 179.855469 107.996094 180.570312 107.613281 181.320312 107.300781 C 182.070312 106.992188 182.84375 106.757812 183.640625 106.597656 C 184.4375 106.4375 185.242188 106.359375 186.054688 106.359375 L 297.429688 106.359375 C 298.242188 106.359375 299.046875 106.4375 299.84375 106.597656 C 300.640625 106.757812 301.414062 106.992188 302.164062 107.300781 C 302.917969 107.613281 303.628906 107.996094 304.304688 108.445312 C 304.980469 108.898438 305.605469 109.410156 306.179688 109.984375 C 306.753906 110.558594 307.269531 111.183594 307.71875 111.859375 C 308.171875 112.535156 308.550781 113.25 308.863281 114 C 309.175781 114.75 309.410156 115.523438 309.566406 116.320312 C 309.726562 117.117188 309.804688 117.921875 309.804688 118.734375 C 309.804688 119.546875 309.726562 120.351562 309.566406 121.148438 C 309.410156 121.945312 309.175781 122.71875 308.863281 123.472656 C 308.550781 124.222656 308.171875 124.933594 307.71875 125.609375 C 307.269531 126.285156 306.753906 126.910156 306.179688 127.484375 C 305.605469 128.058594 304.980469 128.574219 304.304688 129.023438 C 303.628906 129.476562 302.917969 129.855469 302.164062 130.167969 C 301.414062 130.480469 300.640625 130.714844 299.84375 130.871094 C 299.046875 131.03125 298.242188 131.109375 297.429688 131.109375 Z M 297.429688 131.109375 " clip-rule="nonzero"/></clipPath><linearGradient x1="8.137272" gradientTransform="matrix(12.375, 0, 0, 12.375, -11.944791, -11.94479)" y1="32.861829" x2="23.862729" gradientUnits="userSpaceOnUse" y2="-0.86183" id="0d1327fb2d"><stop stop-opacity="1" stop-color="rgb(30.198669%, 34.899902%, 97.599792%)" offset="0"/><stop stop-opacity="1" stop-color="rgb(30.271912%, 34.947205%, 97.60437%)" offset="0.03125"/><stop stop-opacity="1" stop-color="rgb(30.46875%, 35.076904%, 97.619629%)" offset="0.0390625"/><stop stop-opacity="1" stop-color="rgb(30.714417%, 35.238647%, 97.639465%)" offset="0.046875"/><stop stop-opacity="1" stop-color="rgb(30.960083%, 35.400391%, 97.659302%)" offset="0.0546875"/><stop stop-opacity="1" stop-color="rgb(31.207275%, 35.562134%, 97.679138%)" offset="0.0625"/><stop stop-opacity="1" stop-color="rgb(31.452942%, 35.723877%, 97.698975%)" offset="0.0703125"/><stop stop-opacity="1" stop-color="rgb(31.698608%, 35.88562%, 97.718811%)" offset="0.078125"/><stop stop-opacity="1" stop-color="rgb(31.944275%, 36.047363%, 97.738647%)" offset="0.0859375"/><stop stop-opacity="1" stop-color="rgb(32.189941%, 36.209106%, 97.758484%)" offset="0.09375"/><stop stop-opacity="1" stop-color="rgb(32.435608%, 36.37085%, 97.77832%)" offset="0.101562"/><stop stop-opacity="1" stop-color="rgb(32.681274%, 36.532593%, 97.798157%)" offset="0.109375"/><stop stop-opacity="1" stop-color="rgb(32.928467%, 36.694336%, 97.817993%)" offset="0.117188"/><stop stop-opacity="1" stop-color="rgb(33.174133%, 36.856079%, 97.83783%)" offset="0.125"/><stop stop-opacity="1" stop-color="rgb(33.4198%, 37.017822%, 97.857666%)" offset="0.132812"/><stop stop-opacity="1" stop-color="rgb(33.665466%, 37.179565%, 97.877502%)" offset="0.140625"/><stop stop-opacity="1" stop-color="rgb(33.911133%, 37.341309%, 97.897339%)" offset="0.148438"/><stop stop-opacity="1" stop-color="rgb(34.156799%, 37.503052%, 97.917175%)" offset="0.15625"/><stop stop-opacity="1" stop-color="rgb(34.402466%, 37.664795%, 97.937012%)" offset="0.164063"/><stop stop-opacity="1" stop-color="rgb(34.648132%, 37.826538%, 97.956848%)" offset="0.171875"/><stop stop-opacity="1" stop-color="rgb(34.895325%, 37.988281%, 97.976685%)" offset="0.179688"/><stop stop-opacity="1" stop-color="rgb(35.140991%, 38.150024%, 97.996521%)" offset="0.1875"/><stop stop-opacity="1" stop-color="rgb(35.386658%, 38.311768%, 98.016357%)" offset="0.195313"/><stop stop-opacity="1" stop-color="rgb(35.632324%, 38.473511%, 98.036194%)" offset="0.203125"/><stop stop-opacity="1" stop-color="rgb(35.877991%, 38.635254%, 98.05603%)" offset="0.210938"/><stop stop-opacity="1" stop-color="rgb(36.123657%, 38.796997%, 98.075867%)" offset="0.21875"/><stop stop-opacity="1" stop-color="rgb(36.369324%, 38.95874%, 98.095703%)" offset="0.226563"/><stop stop-opacity="1" stop-color="rgb(36.616516%, 39.120483%, 98.11554%)" offset="0.234375"/><stop stop-opacity="1" stop-color="rgb(36.862183%, 39.282227%, 98.135376%)" offset="0.242188"/><stop stop-opacity="1" stop-color="rgb(37.107849%, 39.44397%, 98.155212%)" offset="0.25"/><stop stop-opacity="1" stop-color="rgb(37.353516%, 39.605713%, 98.175049%)" offset="0.257813"/><stop stop-opacity="1" stop-color="rgb(37.599182%, 39.767456%, 98.194885%)" offset="0.265625"/><stop stop-opacity="1" stop-color="rgb(37.844849%, 39.929199%, 98.214722%)" offset="0.273438"/><stop stop-opacity="1" stop-color="rgb(38.090515%, 40.090942%, 98.234558%)" offset="0.28125"/><stop stop-opacity="1" stop-color="rgb(38.337708%, 40.252686%, 98.254395%)" offset="0.289062"/><stop stop-opacity="1" stop-color="rgb(38.583374%, 40.414429%, 98.274231%)" offset="0.296875"/><stop stop-opacity="1" stop-color="rgb(38.829041%, 40.576172%, 98.294067%)" offset="0.304688"/><stop stop-opacity="1" stop-color="rgb(39.074707%, 40.737915%, 98.313904%)" offset="0.3125"/><stop stop-opacity="1" stop-color="rgb(39.320374%, 40.898132%, 98.33374%)" offset="0.318013"/><stop stop-opacity="1" stop-color="rgb(39.44397%, 40.979004%, 98.344421%)" offset="0.320313"/><stop stop-opacity="1" stop-color="rgb(39.56604%, 41.059875%, 98.353577%)" offset="0.328125"/><stop stop-opacity="1" stop-color="rgb(39.811707%, 41.221619%, 98.373413%)" offset="0.335938"/><stop stop-opacity="1" stop-color="rgb(40.057373%, 41.383362%, 98.39325%)" offset="0.34375"/><stop stop-opacity="1" stop-color="rgb(40.304565%, 41.545105%, 98.413086%)" offset="0.351563"/><stop stop-opacity="1" stop-color="rgb(40.550232%, 41.706848%, 98.431396%)" offset="0.359375"/><stop stop-opacity="1" stop-color="rgb(40.795898%, 41.868591%, 98.451233%)" offset="0.367188"/><stop stop-opacity="1" stop-color="rgb(41.041565%, 42.030334%, 98.471069%)" offset="0.375"/><stop stop-opacity="1" stop-color="rgb(41.287231%, 42.192078%, 98.490906%)" offset="0.382813"/><stop stop-opacity="1" stop-color="rgb(41.532898%, 42.353821%, 98.510742%)" offset="0.390625"/><stop stop-opacity="1" stop-color="rgb(41.778564%, 42.515564%, 98.530579%)" offset="0.398438"/><stop stop-opacity="1" stop-color="rgb(42.025757%, 42.677307%, 98.550415%)" offset="0.40625"/><stop stop-opacity="1" stop-color="rgb(42.271423%, 42.83905%, 98.570251%)" offset="0.414062"/><stop stop-opacity="1" stop-color="rgb(42.51709%, 43.000793%, 98.590088%)" offset="0.421875"/><stop stop-opacity="1" stop-color="rgb(42.762756%, 43.162537%, 98.609924%)" offset="0.429688"/><stop stop-opacity="1" stop-color="rgb(43.008423%, 43.32428%, 98.629761%)" offset="0.4375"/><stop stop-opacity="1" stop-color="rgb(43.254089%, 43.486023%, 98.649597%)" offset="0.445313"/><stop stop-opacity="1" stop-color="rgb(43.499756%, 43.647766%, 98.669434%)" offset="0.453125"/><stop stop-opacity="1" stop-color="rgb(43.746948%, 43.809509%, 98.68927%)" offset="0.460938"/><stop stop-opacity="1" stop-color="rgb(43.992615%, 43.971252%, 98.709106%)" offset="0.46875"/><stop stop-opacity="1" stop-color="rgb(44.238281%, 44.132996%, 98.728943%)" offset="0.476563"/><stop stop-opacity="1" stop-color="rgb(44.483948%, 44.294739%, 98.748779%)" offset="0.484375"/><stop stop-opacity="1" stop-color="rgb(44.729614%, 44.456482%, 98.768616%)" offset="0.492188"/><stop stop-opacity="1" stop-color="rgb(44.975281%, 44.618225%, 98.788452%)" offset="0.5"/><stop stop-opacity="1" stop-color="rgb(45.220947%, 44.779968%, 98.808289%)" offset="0.507812"/><stop stop-opacity="1" stop-color="rgb(45.46814%, 44.941711%, 98.828125%)" offset="0.515625"/><stop stop-opacity="1" stop-color="rgb(45.713806%, 45.103455%, 98.847961%)" offset="0.523437"/><stop stop-opacity="1" stop-color="rgb(45.959473%, 45.265198%, 98.867798%)" offset="0.53125"/><stop stop-opacity="1" stop-color="rgb(46.205139%, 45.426941%, 98.887634%)" offset="0.539062"/><stop stop-opacity="1" stop-color="rgb(46.450806%, 45.588684%, 98.907471%)" offset="0.546875"/><stop stop-opacity="1" stop-color="rgb(46.696472%, 45.750427%, 98.927307%)" offset="0.554687"/><stop stop-opacity="1" stop-color="rgb(46.942139%, 45.91217%, 98.947144%)" offset="0.5625"/><stop stop-opacity="1" stop-color="rgb(47.187805%, 46.073914%, 98.96698%)" offset="0.570312"/><stop stop-opacity="1" stop-color="rgb(47.434998%, 46.235657%, 98.986816%)" offset="0.578125"/><stop stop-opacity="1" stop-color="rgb(47.680664%, 46.3974%, 99.006653%)" offset="0.585937"/><stop stop-opacity="1" stop-color="rgb(47.926331%, 46.559143%, 99.026489%)" offset="0.59375"/><stop stop-opacity="1" stop-color="rgb(48.171997%, 46.720886%, 99.046326%)" offset="0.601562"/><stop stop-opacity="1" stop-color="rgb(48.417664%, 46.882629%, 99.066162%)" offset="0.609375"/><stop stop-opacity="1" stop-color="rgb(48.66333%, 47.044373%, 99.085999%)" offset="0.617188"/><stop stop-opacity="1" stop-color="rgb(48.908997%, 47.206116%, 99.105835%)" offset="0.625"/><stop stop-opacity="1" stop-color="rgb(49.156189%, 47.367859%, 99.125671%)" offset="0.632812"/><stop stop-opacity="1" stop-color="rgb(49.401855%, 47.529602%, 99.145508%)" offset="0.640625"/><stop stop-opacity="1" stop-color="rgb(49.647522%, 47.691345%, 99.165344%)" offset="0.648438"/><stop stop-opacity="1" stop-color="rgb(49.893188%, 47.853088%, 99.185181%)" offset="0.65625"/><stop stop-opacity="1" stop-color="rgb(50.138855%, 48.014832%, 99.205017%)" offset="0.664063"/><stop stop-opacity="1" stop-color="rgb(50.384521%, 48.176575%, 99.224854%)" offset="0.671875"/><stop stop-opacity="1" stop-color="rgb(50.630188%, 48.338318%, 99.24469%)" offset="0.679688"/><stop stop-opacity="1" stop-color="rgb(50.87738%, 48.500061%, 99.264526%)" offset="0.681987"/><stop stop-opacity="1" stop-color="rgb(51.000977%, 48.580933%, 99.275208%)" offset="0.6875"/><stop stop-opacity="1" stop-color="rgb(51.123047%, 48.661804%, 99.284363%)" offset="0.695313"/><stop stop-opacity="1" stop-color="rgb(51.368713%, 48.823547%, 99.304199%)" offset="0.703125"/><stop stop-opacity="1" stop-color="rgb(51.61438%, 48.985291%, 99.32251%)" offset="0.710938"/><stop stop-opacity="1" stop-color="rgb(51.860046%, 49.147034%, 99.342346%)" offset="0.71875"/><stop stop-opacity="1" stop-color="rgb(52.105713%, 49.308777%, 99.362183%)" offset="0.726563"/><stop stop-opacity="1" stop-color="rgb(52.351379%, 49.47052%, 99.382019%)" offset="0.734375"/><stop stop-opacity="1" stop-color="rgb(52.597046%, 49.632263%, 99.401855%)" offset="0.742188"/><stop stop-opacity="1" stop-color="rgb(52.844238%, 49.794006%, 99.421692%)" offset="0.75"/><stop stop-opacity="1" stop-color="rgb(53.089905%, 49.95575%, 99.441528%)" offset="0.757812"/><stop stop-opacity="1" stop-color="rgb(53.335571%, 50.117493%, 99.461365%)" offset="0.765625"/><stop stop-opacity="1" stop-color="rgb(53.581238%, 50.27771%, 99.481201%)" offset="0.773437"/><stop stop-opacity="1" stop-color="rgb(53.826904%, 50.439453%, 99.501038%)" offset="0.78125"/><stop stop-opacity="1" stop-color="rgb(54.072571%, 50.601196%, 99.520874%)" offset="0.789062"/><stop stop-opacity="1" stop-color="rgb(54.318237%, 50.762939%, 99.54071%)" offset="0.796875"/><stop stop-opacity="1" stop-color="rgb(54.56543%, 50.924683%, 99.560547%)" offset="0.804687"/><stop stop-opacity="1" stop-color="rgb(54.811096%, 51.086426%, 99.580383%)" offset="0.8125"/><stop stop-opacity="1" stop-color="rgb(55.056763%, 51.248169%, 99.60022%)" offset="0.820312"/><stop stop-opacity="1" stop-color="rgb(55.302429%, 51.409912%, 99.620056%)" offset="0.828125"/><stop stop-opacity="1" stop-color="rgb(55.548096%, 51.571655%, 99.639893%)" offset="0.835937"/><stop stop-opacity="1" stop-color="rgb(55.793762%, 51.733398%, 99.659729%)" offset="0.84375"/><stop stop-opacity="1" stop-color="rgb(56.039429%, 51.895142%, 99.679565%)" offset="0.851562"/><stop stop-opacity="1" stop-color="rgb(56.286621%, 52.056885%, 99.699402%)" offset="0.859375"/><stop stop-opacity="1" stop-color="rgb(56.532288%, 52.218628%, 99.719238%)" offset="0.867188"/><stop stop-opacity="1" stop-color="rgb(56.777954%, 52.380371%, 99.739075%)" offset="0.875"/><stop stop-opacity="1" stop-color="rgb(57.023621%, 52.542114%, 99.758911%)" offset="0.882812"/><stop stop-opacity="1" stop-color="rgb(57.269287%, 52.703857%, 99.778748%)" offset="0.890625"/><stop stop-opacity="1" stop-color="rgb(57.514954%, 52.865601%, 99.798584%)" offset="0.898438"/><stop stop-opacity="1" stop-color="rgb(57.76062%, 53.027344%, 99.81842%)" offset="0.90625"/><stop stop-opacity="1" stop-color="rgb(58.006287%, 53.189087%, 99.838257%)" offset="0.914063"/><stop stop-opacity="1" stop-color="rgb(58.253479%, 53.35083%, 99.858093%)" offset="0.921875"/><stop stop-opacity="1" stop-color="rgb(58.499146%, 53.512573%, 99.87793%)" offset="0.929688"/><stop stop-opacity="1" stop-color="rgb(58.744812%, 53.674316%, 99.897766%)" offset="0.9375"/><stop stop-opacity="1" stop-color="rgb(58.990479%, 53.83606%, 99.917603%)" offset="0.945313"/><stop stop-opacity="1" stop-color="rgb(59.236145%, 53.997803%, 99.937439%)" offset="0.953125"/><stop stop-opacity="1" stop-color="rgb(59.481812%, 54.159546%, 99.957275%)" offset="0.960938"/><stop stop-opacity="1" stop-color="rgb(59.727478%, 54.321289%, 99.977112%)" offset="0.96875"/><stop stop-opacity="1" stop-color="rgb(59.924316%, 54.450989%, 99.993896%)" offset="1"/></linearGradient></defs><g clip-path="url(#e7d2125486)"><g clip-path="url(#32b901e98e)"><path fill="url(#0d1327fb2d)" d="M 12.804688 12.804688 L 12.804688 359.304688 L 359.304688 359.304688 L 359.304688 12.804688 Z M 12.804688 12.804688 " fill-rule="nonzero"/></g></g></svg>